<?xml version="1.0" encoding="UTF-8"?>
<svg id="Capa_1" xmlns="http://www.w3.org/2000/svg" version="1.1" viewBox="0 0 425.2 425.2">
  <!-- Generator: Adobe Illustrator 30.1.0, SVG Export Plug-In . SVG Version: 2.1.1 Build 136)  -->
  <defs>
    <style>
      .st0 {
        fill: #1d1d1b;
      }

      .st1 {
        fill: #1d1d1c;
      }

      .st2 {
        fill: #f7a51c;
      }
    </style>
  </defs>
  <g>
    <polygon class="st1" points="54.4 229.5 69.4 229.5 69.4 184.3 88.3 184.3 88.3 172.1 39.1 172.1 39.1 184.3 54.4 184.3 54.4 229.5"/>
    <polygon class="st2" points="107.8 172.1 107.8 194.5 88.1 194.5 88.1 187.3 85.2 187.3 73 187.3 73 229.5 88.1 229.5 88.1 206.6 107.8 206.6 107.8 229.5 122.8 229.5 122.8 172.1 107.8 172.1"/>
  </g>
  <g>
    <g>
      <path class="st0" d="M161.5,180v19.4h-8.5v-19.4h-5.7v-6.6h19.9v6.6h-5.7Z"/>
      <path class="st0" d="M168.8,199.3v-26h8.6v26h-8.6Z"/>
      <path class="st0" d="M198.9,199.3l-11.3-13.4v13.4h-8.6v-26h8.2l11.2,13.4v-13.4h8.3v26h-7.9Z"/>
      <path class="st0" d="M222.6,180v19.4h-8.5v-19.4h-5.7v-6.6h19.9v6.6h-5.7Z"/>
      <path class="st0" d="M261.5,192.3c-.9,1.8-2.1,3.3-3.6,4.5-1.5,1.2-3.3,2.1-5.2,2.7-2,.6-4,.8-6.1.7-2.1,0-4.2-.2-6.2-.7-2-.6-3.8-1.4-5.4-2.6-1.6-1.2-2.8-2.6-3.8-4.4-.9-1.8-1.3-3.8-1.2-6.1,0-2.2.4-4.2,1.3-6s2.2-3.3,3.7-4.5c1.6-1.2,3.3-2.1,5.3-2.7s4.1-.8,6.2-.7c2.1,0,4.1.2,6.1.8,2,.6,3.7,1.5,5.3,2.7s2.8,2.7,3.7,4.4c.9,1.8,1.3,3.8,1.2,6,0,2.2-.4,4.2-1.3,5.9ZM253.1,183.7c-.4-.8-.9-1.5-1.6-2-.7-.6-1.4-1-2.3-1.3-.9-.3-1.8-.5-2.8-.5s-1.9.1-2.8.3c-.9.2-1.7.6-2.4,1.1-.7.5-1.3,1.2-1.7,2s-.7,1.8-.7,2.9.2,2,.7,2.8c.4.8,1,1.4,1.7,2,.7.5,1.5.9,2.4,1.2s1.8.4,2.8.4,1.8-.1,2.7-.4c.9-.2,1.6-.6,2.3-1.1.7-.5,1.2-1.2,1.6-2,.4-.8.6-1.8.6-2.9s-.2-1.8-.6-2.6Z"/>
      <path class="st0" d="M278.4,199.3l-5.5-7.4v7.4h-8.6v-26h11.2c1.4,0,2.8.2,4,.5,1.3.3,2.3.9,3.3,1.6.9.7,1.7,1.6,2.2,2.7s.8,2.4.8,3.9-.5,3-1.4,4.2c-.9,1.2-2.2,2.1-4,2.8l8.8,10.4h-10.9ZM275.8,180.4c-.6-.3-1.3-.5-2.1-.5h-.8v4.4h.8c.8,0,1.5-.2,2.1-.5.6-.3.9-.9.9-1.8,0-.7-.3-1.3-.9-1.6Z"/>
      <path class="st0" d="M289.3,199.3v-26h19.5v7h-11s0,2.9,0,2.9h10.3v6.5s-10.3,0-10.3,0v2.8h11v6.8h-19.5Z"/>
      <path class="st0" d="M324.5,199.3l-5.5-7.4v7.4h-8.6v-26h11.2c1.4,0,2.8.2,4,.5,1.3.3,2.3.9,3.3,1.6.9.7,1.7,1.6,2.2,2.7s.8,2.4.8,3.9-.5,3-1.4,4.2c-.9,1.2-2.2,2.1-4,2.8l8.8,10.4h-10.9ZM321.9,180.4c-.6-.3-1.3-.5-2.1-.5h-.8v4.4h.8c.8,0,1.5-.2,2.1-.5.6-.3.9-.9.9-1.8,0-.7-.3-1.3-.9-1.6Z"/>
      <path class="st0" d="M335.4,199.3v-26h8.6v26h-8.6Z"/>
      <path class="st0" d="M367.1,199.3l-1-3.6h-9l-1,3.6h-10.4l11.4-26h9.1l11.3,26h-10.4ZM364.1,190.1c-.4-1-.7-1.8-.9-2.5-.2-.7-.4-1.3-.6-1.8-.2-.5-.3-.9-.4-1.3,0-.4-.2-.8-.3-1.2,0-.4-.1-.8-.2-1.2,0-.4-.1-1-.2-1.6,0,.6-.2,1.1-.2,1.6,0,.4-.1.8-.2,1.2,0,.4-.2.8-.3,1.2,0,.4-.2.8-.4,1.3-.2.5-.3,1.1-.6,1.8-.2.7-.5,1.5-.8,2.5h5.1Z"/>
      <path class="st0" d="M164.1,229.5v-10.1h-8.3v10.1h-8.6v-26h8.6v9.4h8.3v-9.4h8.6v26h-8.6Z"/>
      <path class="st0" d="M174.3,229.5v-26h19.5v7h-11s0,2.9,0,2.9h10.3v6.5s-10.3,0-10.3,0v2.8h11v6.8h-19.5Z"/>
      <path class="st0" d="M209.5,229.5l-5.5-7.4v7.4h-8.6v-26h11.2c1.4,0,2.8.2,4,.5,1.3.3,2.3.9,3.3,1.6.9.7,1.7,1.6,2.2,2.7.6,1.1.8,2.4.8,3.9s-.5,3-1.4,4.2c-.9,1.2-2.2,2.1-4,2.8l8.8,10.4h-10.9ZM206.9,210.5c-.6-.3-1.3-.5-2.1-.5h-.8v4.4h.8c.8,0,1.5-.2,2.1-.5.6-.3.9-.9.9-1.8,0-.7-.3-1.3-.9-1.6Z"/>
      <path class="st0" d="M240.3,229.5l-11.3-13.4v13.4h-8.6v-26h8.2l11.2,13.4v-13.4h8.3v26h-7.9Z"/>
      <path class="st0" d="M271.3,229.5l-1-3.6h-9l-1,3.6h-10.4l11.4-26h9.1l11.3,26h-10.4ZM268.3,220.2c-.4-1-.7-1.8-.9-2.5-.2-.7-.4-1.3-.6-1.8-.2-.5-.3-.9-.4-1.3,0-.4-.2-.8-.3-1.2,0-.4-.1-.8-.2-1.2,0-.4-.1-1-.2-1.6,0,.6-.2,1.1-.2,1.6,0,.4-.1.8-.2,1.2,0,.4-.2.8-.3,1.2,0,.4-.2.8-.4,1.3-.2.5-.3,1.1-.6,1.8-.2.7-.5,1.5-.8,2.5h5.1Z"/>
      <path class="st0" d="M301.6,229.5l-11.3-13.4v13.4h-8.6v-26h8.2l11.2,13.4v-13.4h8.3v26h-7.9Z"/>
      <path class="st0" d="M334.8,221.9c-.9,1.7-2,3.1-3.5,4.4-1.4,1.2-2.8,2-4.4,2.5s-3.3.7-5.3.7h-10.6v-26h10.6c3.6,0,6.8,1.1,9.6,3.2,3.2,2.5,4.8,5.8,4.8,9.9s-.4,3.8-1.3,5.4ZM325.2,212c-1.3-1-3.1-1.5-5.6-1.5v12c1.1,0,2.1,0,3-.3.9-.2,1.7-.5,2.3-.9.6-.4,1.2-1.1,1.5-1.8.4-.8.6-1.8.6-3,0-2-.6-3.5-1.9-4.5Z"/>
      <path class="st0" d="M337.8,229.5v-26h19.5v7h-11s0,2.9,0,2.9h10.3v6.5s-10.3,0-10.3,0v2.8h11v6.8h-19.5Z"/>
      <path class="st0" d="M373.1,222.5h11.1v6.9h-26.6l13.6-19.2h-10.3v-6.8h25.5l-13.3,19Z"/>
    </g>
    <polygon class="st0" points="336 171.2 341.1 171.2 345.5 165.5 337.4 165.5 336 171.2"/>
  </g>
</svg>